<svg width="29" height="30" viewBox="0 0 29 30" fill="none" xmlns="http://www.w3.org/2000/svg">
<path d="M24.1592 3.55225H23.0206V3.87635C23.0206 4.77945 22.3176 5.50472 21.4537 5.50472C20.5914 5.50472 19.892 4.77942 19.892 3.87635V3.55225H18.6509V3.87635C18.6509 4.77945 17.9533 5.50472 17.0891 5.50472C16.2252 5.50472 15.5223 4.77942 15.5223 3.87635V3.55225H14.2847V3.87635C14.2847 4.77945 13.5834 5.50472 12.7195 5.50472C11.8554 5.50472 11.1542 4.77942 11.1542 3.87635V3.55225H9.91663V3.87635C9.91663 4.77945 9.21551 5.50472 8.35322 5.50472C7.48911 5.50472 6.78623 4.77942 6.78623 3.87635V3.55225H4.84223C3.23278 3.55225 1.92773 5.4736 1.92773 7.8327V24.4747C1.92773 26.8395 3.23278 28.7498 4.84223 28.7498H24.1592C25.7686 28.7498 27.0735 26.8395 27.0735 24.4747V7.8327C27.0735 5.4736 25.7686 3.55225 24.1592 3.55225ZM24.0192 22.1321C24.0192 23.7825 23.6172 25.0481 21.8308 25.1177H7.35279C5.46721 25.1873 5.16624 23.7825 5.16624 22.1321V10.5251C5.16624 8.8712 5.51143 7.42607 7.35279 7.52867H21.8308C23.7076 7.42607 24.0192 8.87122 24.0192 10.5251V22.1321Z" fill="#B1B1B1"/>
<path d="M21.4869 4.79055C21.9899 4.79055 22.4042 4.36385 22.4042 3.82725V2.20805C22.4042 1.6842 21.9899 1.25 21.4869 1.25C20.9787 1.25 20.5645 1.6842 20.5645 2.20805V3.82725C20.5645 4.36385 20.9787 4.79055 21.4869 4.79055Z" fill="#5C5C5B"/>
<path d="M17.1082 4.79055C17.6146 4.79055 18.027 4.36385 18.027 3.82725V2.20805C18.027 1.6842 17.6146 1.25 17.1082 1.25C16.6 1.25 16.1875 1.6842 16.1875 2.20805V3.82725C16.1875 4.36385 16.6 4.79055 17.1082 4.79055Z" fill="#5C5C5B"/>
<path d="M12.8035 4.79055C13.3117 4.79055 13.7205 4.36385 13.7205 3.82725V2.20805C13.7205 1.6842 13.3117 1.25 12.8035 1.25C12.2953 1.25 11.8828 1.6842 11.8828 2.20805V3.82725C11.8828 4.36385 12.2953 4.79055 12.8035 4.79055Z" fill="#5C5C5B"/>
<path d="M8.28382 4.86176C8.78839 4.86176 9.20104 4.43676 9.20104 3.90746V2.28284C9.20104 1.75711 8.78839 1.32666 8.28382 1.32666C7.7738 1.32666 7.36133 1.75711 7.36133 2.28284V3.90746C7.36135 4.43676 7.7738 4.86176 8.28382 4.86176Z" fill="#5C5C5B"/>
</svg>
