<svg width="41" height="39" viewBox="0 0 41 39" fill="none" xmlns="http://www.w3.org/2000/svg">
<g clip-path="url(#clip0_277_5859)">
<path d="M6.08036 0H27.1036C28.7757 0 30.2957 0.612549 31.3987 1.60278C32.5016 2.59302 33.1839 3.95776 33.1839 5.45899V17.6338C33.1839 19.135 32.5016 20.4998 31.3987 21.49C30.2957 22.4802 28.7757 23.0928 27.1036 23.0928H16.5902L7.35653 30.218C6.92878 30.5481 6.28186 30.5037 5.91421 30.1165C5.73392 29.926 5.65261 29.6912 5.67029 29.4595L6.16167 23.0896H6.08036C4.40826 23.0896 2.88817 22.4771 1.78522 21.4868C0.682273 20.4998 0 19.135 0 17.6338V5.45899C0 3.95776 0.682273 2.59302 1.78522 1.60278C2.88464 0.612549 4.40473 0 6.08036 0ZM36.1675 8.88037C37.3589 9.08667 38.4264 9.61353 39.2537 10.3562C40.3319 11.3242 41.0035 12.6604 41.0035 14.1331V26.3079C41.0035 27.7805 40.3354 29.1167 39.2537 30.0847C38.1755 31.0527 36.6872 31.6558 35.0469 31.6558H34.8313L35.3332 38.1431C35.3474 38.3462 35.2802 38.5557 35.1211 38.7207C34.7994 39.0603 34.2303 39.0984 33.8556 38.8096L24.5866 31.4463H12.3764L18.3895 25.9556H31.13C33.9086 25.9556 36.1852 23.9148 36.1852 21.417V9.23901C36.1817 9.11841 36.1781 8.9978 36.1675 8.88037ZM9.07812 13.8633C8.5125 13.8633 8.05294 13.4507 8.05294 12.9429C8.05294 12.4351 8.5125 12.0225 9.07812 12.0225H19.8071C20.3727 12.0225 20.8323 12.4351 20.8323 12.9429C20.8323 13.4507 20.3727 13.8633 19.8071 13.8633H9.07812ZM9.07812 9.30567C8.5125 9.30567 8.05294 8.89307 8.05294 8.38525C8.05294 7.87744 8.5125 7.46484 9.07812 7.46484H24.2861C24.8517 7.46484 25.3113 7.87744 25.3113 8.38525C25.3113 8.89307 24.8517 9.30567 24.2861 9.30567H9.07812ZM27.1 1.84082H6.08036C4.97388 1.84082 3.96637 2.24707 3.23461 2.90405C2.50285 3.56104 2.05035 4.4624 2.05035 5.45899V17.6338C2.05035 18.6272 2.50285 19.5317 3.23461 20.1887C3.96637 20.8457 4.97388 21.252 6.08036 21.252H7.26108V21.2551L7.32825 21.2583C7.89033 21.2932 8.31807 21.7312 8.27919 22.2358L7.87972 27.3965L15.4943 21.5186C15.6781 21.3535 15.9327 21.252 16.2155 21.252H27.1C28.2065 21.252 29.214 20.8457 29.9458 20.1887C30.6775 19.5317 31.13 18.6272 31.13 17.6338V5.45899C31.13 4.46558 30.6775 3.56104 29.9458 2.90405C29.2175 2.24707 28.21 1.84082 27.1 1.84082Z" fill="white"/>
</g>
<defs>
<clipPath id="clip0_277_5859">
<rect width="41" height="39" fill="white"/>
</clipPath>
</defs>
</svg>
