<svg width="28" height="25" viewBox="0 0 28 25" fill="none" xmlns="http://www.w3.org/2000/svg">
<g clip-path="url(#clip0_243_6712)">
<path d="M4.27576 10.2271H1.23963C0.555136 10.2271 0 10.7361 0 11.3638V23.8638C0 24.4909 0.555136 24.9999 1.23963 24.9999H4.27576C4.96025 24.9999 5.51481 24.4909 5.51481 23.8638V11.3638C5.51481 10.7361 4.96025 10.2271 4.27576 10.2271Z" fill="#B1B1B1"/>
<path d="M11.5258 13.6357H8.48963C7.80456 13.6357 7.25 14.1448 7.25 14.7724V23.8629C7.25 24.4911 7.80456 24.9996 8.48963 24.9996H11.5258C12.2103 24.9996 12.7648 24.4905 12.7648 23.8629V14.7724C12.7648 14.1448 12.2103 13.6357 11.5258 13.6357Z" fill="#B1B1B1"/>
<path d="M18.7752 13.6357H15.739C15.0546 13.6357 14.5 14.1448 14.5 14.7724V23.8629C14.5 24.4911 15.0546 24.9996 15.739 24.9996H18.7752C19.4603 24.9996 20.0148 24.4905 20.0148 23.8629V14.7724C20.0148 14.1448 19.4603 13.6357 18.7752 13.6357Z" fill="#B1B1B1"/>
<path d="M26.0232 10.2271H22.9871C22.3026 10.2271 21.748 10.7361 21.748 11.3638V23.8638C21.748 24.4914 22.3026 24.9999 22.9871 24.9999H26.0232C26.7077 24.9999 27.2629 24.4903 27.2629 23.8638V11.3638C27.2629 10.7361 26.7077 10.2271 26.0232 10.2271Z" fill="#B1B1B1"/>
</g>
<defs>
<clipPath id="clip0_243_6712">
<rect width="27.2637" height="25" fill="white"/>
</clipPath>
</defs>
</svg>
