<svg width="39" height="31" viewBox="0 0 39 31" fill="none" xmlns="http://www.w3.org/2000/svg">
<path d="M12.0258 15.8319C12.0258 15.389 11.6648 15.028 11.2219 15.028C7.95703 15.028 5.31563 12.3702 5.31563 9.12178C5.31563 5.85693 7.97344 3.21553 11.2219 3.21553C13.0102 3.21553 14.6836 4.01943 15.8156 5.39756C15.9633 5.59443 16.193 5.69287 16.4391 5.69287C16.6195 5.69287 16.8 5.62725 16.9477 5.5124C17.2922 5.2335 17.3414 4.7249 17.0625 4.38037C15.6187 2.6085 13.4859 1.59131 11.2055 1.59131C7.05469 1.59131 3.675 4.971 3.675 9.12178C3.675 11.8452 5.13516 14.339 7.49766 15.6679C5.34844 16.4226 3.51094 17.7843 2.16563 19.6382C0.754688 21.5577 0 23.8382 0 26.2499C0 26.6929 0.360937 27.0538 0.803906 27.0538C1.24687 27.0538 1.60781 26.6929 1.60781 26.2499C1.60781 20.9507 5.90625 16.6522 11.2055 16.6522C11.6648 16.6358 12.0258 16.2749 12.0258 15.8319Z" fill="#333B69"/>
<path d="M23.5586 19.2938C25.9211 17.9485 27.3812 15.4548 27.3812 12.7478C27.3812 8.59697 24.0016 5.21729 19.8508 5.21729C15.7 5.21729 12.3203 8.59697 12.3203 12.7478C12.3203 15.4712 13.7805 17.9485 16.143 19.2938C13.9938 20.0321 12.1398 21.4103 10.7945 23.2478C9.36719 25.1837 8.62891 27.4806 8.62891 29.8759C8.62891 30.3188 8.98984 30.6798 9.43281 30.6798C9.87578 30.6798 10.2367 30.3188 10.2367 29.8759C10.2367 24.5767 14.5352 20.2782 19.8344 20.2782C25.1336 20.2782 29.432 24.5767 29.432 29.8759C29.432 30.3188 29.793 30.6798 30.2359 30.6798C30.4492 30.6798 30.6625 30.5978 30.8102 30.4501C30.9578 30.3024 31.0398 30.0892 31.0398 29.8759C31.0398 27.4806 30.2852 25.1837 28.8742 23.2478C27.5289 21.4103 25.6914 20.0321 23.5586 19.2938ZM19.8344 6.8251C23.0992 6.8251 25.7406 9.48291 25.7406 12.7313C25.7406 15.9798 23.0828 18.6376 19.8344 18.6376C16.5695 18.6376 13.9281 15.9798 13.9281 12.7313C13.9281 9.48291 16.5859 6.8251 19.8344 6.8251Z" fill="#333B69"/>
<path d="M37.9145 0H19.4738C19.0309 0 18.6699 0.360938 18.6699 0.803907V3.72422C18.6699 4.16719 19.0309 4.52812 19.4738 4.52812C19.9168 4.52812 20.2777 4.16719 20.2777 3.72422V1.60781H37.0941V13.0922H32.9926C32.7793 13.0922 32.566 13.1906 32.4184 13.3383L30.2855 15.5367L30.4988 14.0437C30.5316 13.8141 30.466 13.568 30.302 13.4039C30.1543 13.2234 29.9246 13.125 29.6949 13.125H28.8254C28.3824 13.125 28.0215 13.5023 28.0215 13.9453C28.0215 14.3719 28.3496 14.7164 28.7762 14.7492L28.3496 17.7844C28.3004 18.1289 28.4809 18.4734 28.7926 18.6211C28.9074 18.6703 29.0223 18.7031 29.1535 18.7031C29.3668 18.7031 29.5801 18.6047 29.7277 18.457L33.3535 14.7H37.9145C38.3574 14.7 38.7184 14.3391 38.7184 13.8961V0.803907C38.7184 0.360938 38.3574 0 37.9145 0Z" fill="#333B69"/>
</svg>
