<svg width="28" height="25" viewBox="0 0 28 25" fill="none" xmlns="http://www.w3.org/2000/svg">
<g clip-path="url(#clip0_243_6734)">
<path d="M26.5286 10.8738C26.528 10.8732 26.5274 10.8727 26.5268 10.8721L15.4053 0.674438C14.9313 0.239563 14.301 0 13.6306 0C12.9602 0 12.33 0.239372 11.8557 0.674248L0.740112 10.8667C0.736368 10.8702 0.732624 10.8738 0.728879 10.8772C-0.244587 11.775 -0.242923 13.2317 0.733664 14.1272C1.17984 14.5365 1.76912 14.7736 2.39916 14.7984C2.42475 14.8006 2.45054 14.8018 2.47654 14.8018H2.9198V22.3066C2.9198 23.7917 4.23752 25 5.85746 25H10.2085C10.6495 25 11.0073 24.6721 11.0073 24.2676V18.3838C11.0073 17.7061 11.6084 17.1549 12.3474 17.1549H14.9138C15.6529 17.1549 16.254 17.7061 16.254 18.3838V24.2676C16.254 24.6721 16.6116 25 17.0527 25H21.4038C23.0237 25 24.3415 23.7917 24.3415 22.3066V14.8018H24.7525C25.4227 14.8018 26.0529 14.5624 26.5274 14.1275C27.505 13.2305 27.5054 11.7714 26.5286 10.8738Z" fill="#2D60FF"/>
</g>
<defs>
<clipPath id="clip0_243_6734">
<rect width="27.2637" height="25" fill="white"/>
</clipPath>
</defs>
</svg>
