<svg width="32" height="32" viewBox="0 0 32 32" fill="none" xmlns="http://www.w3.org/2000/svg">
<path d="M10.4343 17.3915C11.2027 17.3915 11.8256 16.7686 11.8256 16.0002C11.8256 15.2318 11.2027 14.6089 10.4343 14.6089C9.66588 14.6089 9.04297 15.2318 9.04297 16.0002C9.04297 16.7686 9.66588 17.3915 10.4343 17.3915Z" fill="white"/>
<path d="M16.0007 17.3915C16.7691 17.3915 17.392 16.7686 17.392 16.0002C17.392 15.2318 16.7691 14.6089 16.0007 14.6089C15.2323 14.6089 14.6094 15.2318 14.6094 16.0002C14.6094 16.7686 15.2323 17.3915 16.0007 17.3915Z" fill="white"/>
<path d="M21.5651 17.3915C22.3335 17.3915 22.9564 16.7686 22.9564 16.0002C22.9564 15.2318 22.3335 14.6089 21.5651 14.6089C20.7967 14.6089 20.1738 15.2318 20.1738 16.0002C20.1738 16.7686 20.7967 17.3915 21.5651 17.3915Z" fill="white"/>
<path fill-rule="evenodd" clip-rule="evenodd" d="M17.5417 7.12516C17.5417 6.54987 17.0753 6.0835 16.5 6.0835C15.9247 6.0835 15.4583 6.54987 15.4583 7.12516V16.5002C15.4583 17.0755 15.9247 17.5418 16.5 17.5418C17.0753 17.5418 17.5417 17.0755 17.5417 16.5002V7.12516ZM12.9679 10.1193C13.4709 9.84019 13.6525 9.20611 13.3733 8.70308C13.0942 8.20004 12.4601 8.01853 11.9571 8.29766C9.07764 9.89545 7.125 12.9691 7.125 16.5002C7.125 21.6779 11.3223 25.8752 16.5 25.8752C21.6777 25.8752 25.875 21.6779 25.875 16.5002C25.875 13.0288 23.9877 9.99941 21.1882 8.38001C20.6903 8.09194 20.053 8.26211 19.765 8.76009C19.477 9.25807 19.6471 9.89529 20.1451 10.1834C22.3273 11.4457 23.7917 13.8025 23.7917 16.5002C23.7917 20.5272 20.5271 23.7918 16.5 23.7918C12.4729 23.7918 9.20833 20.5272 9.20833 16.5002C9.20833 13.7562 10.7236 11.3647 12.9679 10.1193Z" fill="black"/>
</svg>
