<svg width="28" height="25" viewBox="0 0 28 25" fill="none" xmlns="http://www.w3.org/2000/svg">
<g clip-path="url(#clip0_243_7822)">
<path d="M24.7538 9.41406H24.175C23.987 8.87451 23.7498 8.35039 23.4656 7.84683L23.8755 7.47095C24.8694 6.56055 24.8428 5.10156 23.8758 4.21582L22.6665 3.10693C21.7011 2.22056 20.1097 2.19487 19.1166 3.10659L18.7064 3.48276C18.1572 3.22222 17.5856 3.00464 16.9972 2.83223V2.30142C16.9972 1.03242 15.8713 0 14.4874 0H12.7763C11.3924 0 10.2665 1.03242 10.2665 2.30142V2.83223C9.67814 3.00459 9.1065 3.22217 8.55734 3.48276L8.14748 3.10693C7.15635 2.19702 5.56499 2.21836 4.59766 3.10664L3.38821 4.21558C2.42162 5.10093 2.39367 6.56001 3.38789 7.4707L3.79812 7.84687C3.51393 8.35044 3.2767 8.87451 3.08868 9.41411H2.50986C1.12596 9.41406 0 10.4465 0 11.7155V13.2845C0 14.5535 1.12596 15.5859 2.50986 15.5859H3.08868C3.2767 16.1255 3.51393 16.6496 3.79812 17.1532L3.38821 17.5291C2.39431 18.4395 2.42093 19.8984 3.38789 20.7842L4.59724 21.8931C5.56259 22.7794 7.15401 22.8051 8.14711 21.8934L8.55734 21.5172C9.1065 21.7778 9.67814 21.9954 10.2665 22.1678V22.6986C10.2665 23.9676 11.3924 25 12.7763 25H14.4874C15.8713 25 16.9973 23.9676 16.9973 22.6986V22.1678C17.5856 21.9954 18.1573 21.7778 18.7064 21.5172L19.1163 21.8931C20.1074 22.803 21.6987 22.7816 22.6661 21.8934L23.8756 20.7844C24.8421 19.899 24.8701 18.4399 23.8759 17.5292L23.4656 17.1531C23.7498 16.6495 23.9871 16.1254 24.1751 15.5858H24.7539C26.1378 15.5858 27.2638 14.5534 27.2638 13.2844V11.7154C27.2637 10.4465 26.1377 9.41406 24.7538 9.41406ZM13.6319 17.9395C10.3609 17.9395 7.69987 15.4993 7.69987 12.5C7.69987 9.50068 10.3609 7.06055 13.6319 7.06055C16.9028 7.06055 19.5638 9.50068 19.5638 12.5C19.5638 15.4993 16.9028 17.9395 13.6319 17.9395Z" fill="#B1B1B1"/>
</g>
<defs>
<clipPath id="clip0_243_7822">
<rect width="27.2637" height="25" fill="white"/>
</clipPath>
</defs>
</svg>
