<svg width="28" height="25" viewBox="0 0 28 25" fill="none" xmlns="http://www.w3.org/2000/svg">
<g clip-path="url(#clip0_243_6730)">
<path d="M13.4378 12.0426C15.2421 12.0426 16.8044 11.4492 18.0809 10.2785C19.3575 9.10793 20.0046 7.67571 20.0046 6.02109C20.0046 4.36705 19.3575 2.93463 18.0807 1.76372C16.804 0.593374 15.2419 0 13.4378 0C11.6334 0 10.0715 0.593374 8.79494 1.76391C7.51841 2.93444 6.87109 4.36686 6.87109 6.02109C6.87109 7.67571 7.51841 9.10813 8.79515 10.2787C10.0719 11.449 11.634 12.0426 13.4378 12.0426Z" fill="#B1B1B1"/>
<path d="M24.9275 19.2239C24.8906 18.7368 24.8162 18.2054 24.7065 17.6443C24.5959 17.0789 24.4534 16.5445 24.2828 16.056C24.1067 15.5512 23.867 15.0526 23.5708 14.5748C23.2634 14.0789 22.9023 13.6471 22.4971 13.2917C22.0734 12.92 21.5546 12.6211 20.9548 12.4031C20.3569 12.1862 19.6944 12.0764 18.9858 12.0764C18.7075 12.0764 18.4383 12.1811 17.9185 12.4914C17.5986 12.6827 17.2244 12.904 16.8067 13.1487C16.4496 13.3573 15.9657 13.5528 15.3681 13.7298C14.7851 13.9028 14.1931 13.9906 13.6088 13.9906C13.0245 13.9906 12.4328 13.9028 11.8491 13.7298C11.2521 13.553 10.7683 13.3575 10.4116 13.1489C9.99785 12.9064 9.62344 12.6852 9.29874 12.4912C8.77956 12.1809 8.51019 12.0762 8.23188 12.0762C7.523 12.0762 6.86071 12.1862 6.26311 12.4033C5.66364 12.6209 5.14466 12.9198 4.72054 13.2919C4.31555 13.6474 3.95425 14.0791 3.64723 14.5748C3.35124 15.0526 3.11162 15.551 2.93523 16.0562C2.76487 16.5447 2.62239 17.0789 2.51173 17.6443C2.40211 18.2046 2.32764 18.7362 2.29083 19.2245C2.25463 19.7029 2.23633 20.1993 2.23633 20.7008C2.23633 22.0058 2.68874 23.0623 3.58088 23.8414C4.46199 24.6103 5.62786 25.0003 7.04563 25.0003H20.1733C21.591 25.0003 22.7565 24.6105 23.6378 23.8414C24.5302 23.0628 24.9826 22.0062 24.9826 20.7006C24.9824 20.1969 24.9639 19.7 24.9275 19.2239Z" fill="#B1B1B1"/>
</g>
<defs>
<clipPath id="clip0_243_6730">
<rect width="27.2637" height="25" fill="white"/>
</clipPath>
</defs>
</svg>
