<svg width="20" height="19" viewBox="0 0 20 19" fill="none" xmlns="http://www.w3.org/2000/svg">
<path d="M14.25 0H5.75C4.22582 0.00264 2.76477 0.60928 1.68701 1.68704C0.60925 2.7648 0.00264 4.22582 0 5.75V12.75C0.00264 14.2742 0.60925 15.7352 1.68701 16.8129C2.76477 17.8907 4.22582 18.4974 5.75 18.5H14.25C15.7742 18.4974 17.2352 17.8907 18.313 16.8129C19.3907 15.7352 19.9974 14.2742 20 12.75V5.75C19.9974 4.22582 19.3907 2.7648 18.313 1.68704C17.2352 0.60928 15.7742 0.00264 14.25 0ZM6 3.34998C6.63917 3.34998 7.25214 3.60388 7.7041 4.05585C8.1561 4.50781 8.41 5.12081 8.41 5.75998C8.41 6.39915 8.1561 7.01215 7.7041 7.4641C7.25214 7.9161 6.63917 8.17 6 8.17C5.68351 8.1693 5.37027 8.1063 5.07812 7.9846C4.78598 7.8629 4.52069 7.6848 4.29736 7.4606C3.84634 7.00767 3.59364 6.39415 3.59497 5.75497C3.5963 5.1158 3.85154 4.50336 4.30444 4.05234C4.75734 3.60131 5.37084 3.34865 6.01001 3.34998H6ZM18.5 10.03L16.3201 8.34C15.6921 7.9023 14.9301 7.6995 14.1677 7.7672C13.4053 7.8348 12.6911 8.1686 12.15 8.71L9.8201 11.04C9.3322 11.512 8.6986 11.8046 8.0229 11.87C7.34726 11.9354 6.6693 11.7697 6.09998 11.4C5.82251 11.2167 5.49143 11.1321 5.16003 11.16C4.82724 11.195 4.51656 11.3433 4.28003 11.58L1.84998 14.42C1.58748 13.8189 1.46771 13.1651 1.5 12.51L3.18005 10.56C3.66449 10.0704 4.30263 9.7625 4.9873 9.6878C5.67198 9.6131 6.3615 9.7763 6.94006 10.15C7.21668 10.3373 7.55012 10.4219 7.88257 10.389C8.215 10.3561 8.5254 10.2079 8.76 9.97L11.09 7.65C11.8873 6.85532 12.9399 6.36824 14.0618 6.2749C15.1836 6.18157 16.3023 6.488 17.22 7.13998L18.5 8.14V10.03Z" fill="#7FBCFF"/>
</svg>
