<svg width="25" height="25" viewBox="0 0 25 25" fill="none" xmlns="http://www.w3.org/2000/svg">
<g clip-path="url(#clip0_362_6487)">
<path fill-rule="evenodd" clip-rule="evenodd" d="M12.5 4.54414C11.8682 4.54414 11.364 4.03076 11.364 3.39746V1.14668C11.364 0.503665 11.8726 0 12.5 0C13.1318 0 13.636 0.513386 13.636 1.14668V3.39746C13.636 4.04048 13.1274 4.54414 12.5 4.54414ZM21.3388 21.3388C20.8921 21.7856 20.1725 21.7791 19.7247 21.3313L18.1332 19.7398C17.6785 19.2851 17.682 18.5693 18.1256 18.1256C18.5724 17.6789 19.292 17.6854 19.7398 18.1332L21.3313 19.7247C21.786 20.1794 21.7825 20.8952 21.3388 21.3388ZM12.5 17.0405C15.0097 17.0405 17.0441 15.0061 17.0441 12.4964C17.0441 9.98673 15.0097 7.95225 12.5 7.95225C9.99034 7.95225 7.95586 9.98673 7.95586 12.4964C7.95586 15.0061 9.99034 17.0405 12.5 17.0405ZM12.5 25C11.8682 25 11.364 24.4866 11.364 23.8533V21.6025C11.364 20.9595 11.8726 20.4559 12.5 20.4559C13.1318 20.4559 13.636 20.9692 13.636 21.6025V23.8533C13.636 24.4963 13.1274 25 12.5 25ZM18.1256 6.87436C17.6789 6.42762 17.6854 5.70804 18.1332 5.26024L19.7247 3.66869C20.1794 3.21401 20.8952 3.21752 21.3388 3.66117C21.7856 4.10791 21.7791 4.82748 21.3313 5.27529L19.7398 6.86683C19.2851 7.32151 18.5693 7.31801 18.1256 6.87436ZM6.87436 18.1256C7.3211 18.5724 7.31464 19.292 6.86683 19.7398L5.27529 21.3313C4.82061 21.786 4.10482 21.7825 3.66117 21.3388C3.21442 20.8921 3.22088 20.1725 3.66869 19.7247L5.26024 18.1332C5.71492 17.6785 6.43071 17.682 6.87436 18.1256ZM12.5 19.3126C8.73551 19.3126 5.68378 16.2609 5.68378 12.4964C5.68378 8.7319 8.73551 5.68018 12.5 5.68018C16.2645 5.68018 19.3162 8.7319 19.3162 12.4964C19.3162 16.2609 16.2645 19.3126 12.5 19.3126ZM0 12.5C0 11.8682 0.513386 11.364 1.14668 11.364H3.39746C4.04048 11.364 4.54414 11.8726 4.54414 12.5C4.54414 13.1318 4.03076 13.636 3.39746 13.636H1.14668C0.503665 13.636 0 13.1274 0 12.5ZM20.4559 12.5C20.4559 11.8682 20.9692 11.364 21.6025 11.364H23.8533C24.4963 11.364 25 11.8726 25 12.5C25 13.1318 24.4866 13.636 23.8533 13.636H21.6025C20.9595 13.636 20.4559 13.1274 20.4559 12.5ZM3.66117 3.66117C4.10791 3.21442 4.82748 3.22088 5.27529 3.66869L6.86683 5.26024C7.32151 5.71492 7.31801 6.43071 6.87436 6.87436C6.42762 7.3211 5.70804 7.31464 5.26024 6.86683L3.66869 5.27529C3.21401 4.82061 3.21752 4.10482 3.66117 3.66117Z" fill="black"/>
</g>
<defs>
<clipPath id="clip0_362_6487">
<rect width="25" height="25" fill="white"/>
</clipPath>
</defs>
</svg>
