<svg width="85" height="86" viewBox="0 0 85 86" fill="none" xmlns="http://www.w3.org/2000/svg">
<path d="M24.9433 0.178477C21.5652 0.578087 18.798 1.41363 15.5996 3.01207C14.3418 3.66598 12.5808 4.68316 11.7183 5.30074C9.70583 6.75387 6.65115 9.84176 5.21365 11.8761C3.84802 13.8015 1.97927 17.5796 1.3324 19.7593C-1.36292 28.4418 0.0745852 37.6691 5.24959 45.0437C6.65115 47.0781 9.70583 50.166 11.7543 51.6191C14.6652 53.6898 18.5824 55.4699 22.1761 56.2691C29.184 57.8312 37.3418 56.3781 43.2355 52.4546L44.4933 51.6191L46.8293 53.8714L49.1652 56.1238L48.2308 58.0492L47.2965 59.9746L60.0543 72.8711L72.8121 85.7675L73.8183 85.6586C76.2262 85.4043 78.8496 84.3871 80.4668 83.0793C82.6949 81.2992 84.4558 77.7754 84.7793 74.5785L84.8871 73.5613L72.1293 60.7011L59.2636 47.8046L57.6465 48.8218L56.0293 49.839L53.5855 47.4777C52.2558 46.1699 51.1418 45.0437 51.1418 44.9347C51.1418 44.8621 51.5011 44.2445 51.8965 43.6269C53.4418 41.2293 54.8074 37.8507 55.5262 34.6539C58.0777 23.2832 53.3699 11.3312 43.7746 4.82848C38.2761 1.12301 31.4121 -0.584413 24.9433 0.178477ZM32.9215 7.08082C41.4386 9.04254 47.9793 16.0539 49.4887 24.7726C49.8121 26.6254 49.7762 30.7304 49.4168 32.4742C48.5543 36.6156 46.9011 40.0304 44.3855 42.9004C41.1152 46.6422 37.234 48.8945 32.1668 50.0207C30.334 50.4203 25.9136 50.4203 24.0449 50.0207C15.348 48.1316 8.87927 41.8468 6.97458 33.3461C4.13552 20.8129 12.5808 8.49762 25.3027 6.71754C27.1355 6.42692 30.9449 6.60856 32.9215 7.08082Z" fill="white"/>
<path d="M20.8467 13.6563C20.5592 13.8016 20.1998 14.0922 20.092 14.2739C19.9482 14.4918 19.8764 15.836 19.8045 18.052L19.7326 21.5032L15.8873 21.5395L12.042 21.5758V31.3844V41.193H27.9982H43.9904V31.3844V21.5758L40.1451 21.5395L36.2998 21.5032L36.2279 18.0883C36.192 15.836 36.0842 14.5282 35.9404 14.3102C35.8326 14.0922 35.4732 13.8379 35.1498 13.6563C34.6467 13.4383 33.7482 13.402 27.9623 13.402C22.2482 13.3657 21.3139 13.4383 20.8467 13.6563ZM32.2389 19.5051V21.6121H27.9982H23.7936V19.5051V17.3981H27.9982H32.2389V19.5051Z" fill="white"/>
</svg>
