<svg width="23" height="23" viewBox="0 0 23 23" fill="none" xmlns="http://www.w3.org/2000/svg">
<g clip-path="url(#clip0_362_6483)">
<path d="M19.6275 3.3727C17.4933 1.23854 14.6676 0.0478868 11.6558 0.00808595C11.6033 0.00332423 11.5512 0 11.5001 0C11.449 0 11.3969 0.00332423 11.3445 0.00808595C8.33263 0.0478419 5.50691 1.2385 3.37275 3.37265C1.2019 5.54359 0.00634766 8.42992 0.00634766 11.5C0.00634766 14.57 1.2019 17.4564 3.3728 19.6273C5.50695 21.7615 8.33263 22.9521 11.3445 22.9919C11.397 22.9967 11.449 23 11.5001 23C11.5512 23 11.6033 22.9966 11.6558 22.9919C14.6677 22.9521 17.4934 21.7615 19.6275 19.6273C21.7984 17.4564 22.9939 14.5701 22.9939 11.5C22.9939 8.42992 21.7984 5.54359 19.6275 3.3727ZM4.33898 4.33888C5.56001 3.11785 7.03816 2.24767 8.65113 1.77752C8.28758 2.19605 7.93418 2.67744 7.60526 3.21089C7.18573 3.89127 6.82249 4.62871 6.51833 5.40842H3.40815C3.69116 5.03409 4.00139 4.67647 4.33898 4.33888ZM2.53761 6.77482H6.05828C5.69217 8.05608 5.47564 9.42108 5.42214 10.8168H1.39592C1.49048 9.38811 1.88081 8.017 2.53761 6.77482ZM2.53766 16.2252C1.88076 14.983 1.49043 13.6119 1.39587 12.1832H5.42209C5.4756 13.579 5.69212 14.944 6.05823 16.2252H2.53766ZM4.33903 18.6611C4.00135 18.3235 3.69112 17.966 3.40815 17.5916H6.51837C6.82254 18.3713 7.18573 19.1087 7.6053 19.7891C7.93422 20.3226 8.28762 20.8039 8.65118 21.2225C7.03825 20.7523 5.56009 19.8821 4.33903 18.6611ZM10.8169 21.3524C10.2477 20.98 9.4834 20.2318 8.76824 19.072C8.48141 18.6069 8.22361 18.1115 7.99572 17.5916H10.8169L10.8169 21.3524ZM10.8169 16.2252H7.48392C7.08466 14.9592 6.84769 13.5905 6.78947 12.1832H10.8169V16.2252ZM10.8169 10.8168H6.78947C6.84765 9.40953 7.08461 8.04076 7.48392 6.77482H10.8169V10.8168ZM10.8169 5.40838H7.99576C8.22365 4.88854 8.48146 4.39314 8.76829 3.92802C9.4834 2.76823 10.2477 2.01996 10.817 1.6476V5.40838H10.8169ZM20.4626 6.77482C21.1195 8.01704 21.5098 9.38811 21.6044 10.8168H17.5781C17.5246 9.42103 17.3081 8.05603 16.942 6.77482H20.4626ZM18.6613 4.33888C18.9989 4.67647 19.3091 5.03409 19.5921 5.40842H16.482C16.1778 4.62871 15.8146 3.89127 15.395 3.21089C15.0661 2.67744 14.7128 2.19605 14.3492 1.77752C15.9621 2.24767 17.4402 3.11785 18.6613 4.33888ZM12.1833 1.6476C12.7526 2.02001 13.5169 2.76823 14.232 3.92802C14.5188 4.39314 14.7766 4.88854 15.0045 5.40838H12.1834V1.6476H12.1833ZM12.1833 6.77482H15.5163C15.9156 8.04081 16.1526 9.40962 16.2108 10.8168H12.1833V6.77482ZM16.2107 12.1832C16.1526 13.5905 15.9156 14.9592 15.5163 16.2252H12.1833V12.1832H16.2107ZM12.1833 21.3524V17.5916H15.0045C14.7766 18.1115 14.5188 18.6069 14.232 19.072C13.5169 20.2318 12.7526 20.98 12.1833 21.3524ZM18.6613 18.6612C17.4402 19.8822 15.9621 20.7523 14.3492 21.2225C14.7127 20.804 15.0661 20.3226 15.395 19.7892C15.8146 19.1088 16.1778 18.3713 16.482 17.5916H19.5921C19.3092 17.966 18.9989 18.3236 18.6613 18.6612ZM20.4626 16.2252H16.942C17.3081 14.944 17.5247 13.579 17.5781 12.1832H21.6043C21.5098 13.6119 21.1194 14.983 20.4626 16.2252Z" fill="black"/>
</g>
<defs>
<clipPath id="clip0_362_6483">
<rect width="23" height="23" fill="white"/>
</clipPath>
</defs>
</svg>
