<svg width="83" height="87" viewBox="0 0 83 87" fill="none" xmlns="http://www.w3.org/2000/svg">
    <path d="M35.5342 72.1055C35.042 71.6133 34.2686 71.6133 33.7764 72.1055L30.085 68.4141C34.9365 61.875 34.4092 52.5938 28.5029 46.6875C21.999 40.1836 11.417 40.1836 4.87793 46.6875C-1.62598 53.1914 -1.62598 63.7734 4.87793 70.3125C10.7842 76.2188 20.0654 76.7461 26.6045 71.8945L30.2959 75.5859C29.8037 76.0781 29.8037 76.8516 30.2959 77.3438L38.7686 85.8164C39.0146 86.0625 39.3311 86.168 39.6475 86.168C39.9639 86.168 40.2803 86.0273 40.5264 85.8164L44.0068 82.3359C44.499 81.8438 44.499 81.0703 44.0068 80.5781L35.5342 72.1055ZM22.8076 64.582C19.4326 67.957 13.9834 67.957 10.6084 64.582C7.2334 61.207 7.2334 55.7578 10.6084 52.3828C13.9834 49.0078 19.4326 49.0078 22.8076 52.3828C26.1826 55.7227 26.1826 61.207 22.8076 64.582ZM37.8545 25.2422C43.1631 41.3086 57.8936 41.2734 63.167 25.2422C64.8896 24.3281 66.6826 21.6211 66.999 19.3711C67.3154 17.0156 67.1045 13.8867 64.749 13.8867C64.2217 6.36328 60.0732 0 50.7217 0C41.5459 0 36.8701 5.51953 36.2725 13.9219C33.917 13.9219 33.7061 17.0508 34.0225 19.4062C34.3389 21.5859 36.1318 24.3281 37.8545 25.2422ZM68.9678 38.25L62.9912 36.9844L50.5459 61.8398L38.1006 36.9844L32.124 38.25C29.5576 38.7773 27.2725 39.8672 25.2686 41.3086C27.1318 42.2227 28.8193 43.418 30.3311 44.9297C36.4834 51.082 37.6084 60.6797 33.3545 68.0625L34.5498 69.2578C35.6045 69.1875 36.624 69.5742 37.3623 70.3477L45.6592 78.6445H82.9951V54.9141C82.9951 46.8984 77.1592 39.9727 68.9678 38.25Z" fill="#7db4e6"/>
</svg>